# xmcd CD database file
#
# Track frame offsets:
#	150
#	14250
#	29710
#	52285
#	70660
#	93392
#	111005
#	127485
#
# Disc length: 1994 seconds
#
# Revision: 0
# Processed by: cddbd v1.5.1PL0 Copyright (c) Steve Scherf et al.
# Submitted via: CDex 1.51
#
DISCID=7507c808
DTITLE=George Maysonet and Charanga America - George Maysonet and Charanga America
DYEAR=1978
DGENRE=Salsa
TTITLE0=Charanga America
TTITLE1=Ayudame San Antonio
TTITLE2=Cañandonga
TTITLE3=Ya Llego
TTITLE4=Somos los que estamos
TTITLE5=Bertalina
TTITLE6=El viejito Don Antonio
TTITLE7=Donde Esta Mi Negra
EXTD=YEAR: 1978
EXTT0=
EXTT1=
EXTT2=
EXTT3=
EXTT4=
EXTT5=
EXTT6=
EXTT7=
PLAYORDER=
